<svg width="98" height="48" viewBox="0 0 98 48" fill="none" xmlns="http://www.w3.org/2000/svg">
<path d="M14.5567 14.6598L19.8351 22H15.5052L10.6804 15.1959H6.2268V22H2.80412V1.83505H10.3093C13.3608 1.83505 15.5464 2.35739 16.866 3.40206C18.2131 4.41924 18.8866 6.08247 18.8866 8.39175C18.8866 11.7182 17.4433 13.8076 14.5567 14.6598ZM10.433 12.1443C12.3299 12.1443 13.6357 11.8557 14.3505 11.2783C15.0653 10.701 15.4227 9.72509 15.4227 8.35051C15.4227 7.03093 15.0653 6.13746 14.3505 5.6701C13.6357 5.17526 12.3574 4.92783 10.5155 4.92783H6.2268V12.1443H10.433ZM29.4177 19.3608C30.8197 19.3608 31.9744 18.8935 32.8816 17.9588C33.8163 17.0241 34.2837 15.8144 34.2837 14.3299C34.2837 12.8454 33.8163 11.6357 32.8816 10.701C31.9744 9.76632 30.8197 9.29897 29.4177 9.29897C28.0156 9.29897 26.861 9.76632 25.9538 10.701C25.0466 11.6357 24.5929 12.8454 24.5929 14.3299C24.5929 15.8144 25.0466 17.0103 25.9538 17.9175C26.861 18.8797 28.0156 19.3608 29.4177 19.3608ZM29.4177 22.2474C27.1084 22.2474 25.184 21.4914 23.6445 19.9794C22.105 18.4399 21.3352 16.5567 21.3352 14.3299C21.3352 12.1031 22.105 10.2337 23.6445 8.72165C25.184 7.18213 27.1084 6.41237 29.4177 6.41237C31.727 6.41237 33.6514 7.18213 35.1909 8.72165C36.7304 10.2337 37.5002 12.1031 37.5002 14.3299C37.5002 16.4742 36.7304 18.3436 35.1909 19.9381C33.6514 21.4777 31.727 22.2474 29.4177 22.2474ZM39.1243 14.3299C39.1243 12.0206 39.9215 10.1237 41.516 8.63917C43.1105 7.15464 45.0762 6.41237 47.4129 6.41237C49.7222 6.41237 51.6741 7.20962 53.2686 8.80412L51.3717 11.1546C50.0521 10 48.7188 9.42268 47.3717 9.42268C45.9971 9.42268 44.815 9.87629 43.8253 10.7835C42.8631 11.6632 42.382 12.8041 42.382 14.2062C42.382 15.6357 42.8631 16.8454 43.8253 17.8351C44.815 18.7973 46.0246 19.2784 47.4542 19.2784C48.8837 19.2784 50.2446 18.6323 51.5366 17.3402L53.4336 19.4021C51.4817 21.299 49.3236 22.2474 46.9593 22.2474C44.76 22.2474 42.9043 21.5189 41.3923 20.0619C39.8803 18.5773 39.1243 16.6667 39.1243 14.3299ZM58.9733 22H55.7568V0.597937H58.9733V13.1753L65.2001 6.65979H69.365L63.5506 12.7216L69.8186 22H65.8599L61.3238 15.2784L58.9733 17.6289V22ZM85.8217 15.732H73.7804C73.8629 16.8316 74.3715 17.7251 75.3062 18.4124C76.2409 19.0997 77.3268 19.4433 78.5639 19.4433C80.5158 19.4433 81.9729 18.8385 82.9351 17.6289L84.7908 19.6495C83.1413 21.3814 80.9832 22.2474 78.3165 22.2474C76.1172 22.2474 74.2753 21.5189 72.7908 20.0619C71.3062 18.6048 70.5639 16.6804 70.5639 14.2887C70.5639 11.9519 71.32 10.055 72.832 8.59794C74.344 7.14089 76.1722 6.41237 78.3165 6.41237C80.4609 6.41237 82.2478 7.05842 83.6774 8.35051C85.1069 9.64261 85.8217 11.3608 85.8217 13.5052V15.732ZM82.6052 13.1753C82.6052 11.9381 82.2066 10.9622 81.4093 10.2474C80.6396 9.53265 79.6361 9.17526 78.399 9.17526C77.1619 9.17526 76.076 9.54639 75.1413 10.2887C74.2341 11.0309 73.7804 11.9931 73.7804 13.1753H82.6052ZM92.364 9.25773V17.0515C92.364 17.7938 92.5564 18.3849 92.9413 18.8247C93.3537 19.2371 93.9035 19.4433 94.5908 19.4433C95.2231 19.4433 95.8829 19.0997 96.5702 18.4124L97.8897 20.7216C96.7351 21.7388 95.4842 22.2474 94.1372 22.2474C92.7351 22.2474 91.553 21.7663 90.5908 20.8041C89.6286 19.8144 89.1475 18.5361 89.1475 16.9691V9.25773H87.2093V6.65979H89.1475V1.83505H92.364V6.65979H96.4052V9.25773H92.364ZM12 48H8.20619L0.0824742 27.8351H3.91753L10.1031 42.8866L16.3299 27.8351H20.1237L12 48ZM28.9273 27.8351C31.9513 27.8351 34.1644 28.4261 35.5664 29.6082C36.996 30.7629 37.7108 32.5636 37.7108 35.0103C37.7108 37.4296 36.996 39.2165 35.5664 40.3711C34.1369 41.4983 31.9376 42.0619 28.9685 42.0619H25.4221V48H21.9994V27.8351H28.9273ZM29.3396 39.0103C31.1541 39.0103 32.4187 38.6667 33.1335 37.9794C33.8757 37.2921 34.2469 36.2062 34.2469 34.7216C34.2469 33.3471 33.8207 32.3711 32.9685 31.7938C32.1163 31.2165 30.7417 30.9278 28.8448 30.9278H25.4221V39.0103H29.3396ZM55.8991 27.8351H59.2805V48H55.6104L44.1877 33.2784V48H40.7651V27.8351H44.1877L55.8991 42.8866V27.8351Z" fill="black"/>
</svg>
